<?xml version="1.0" encoding="UTF-8" standalone="no"?>
<svg
   version="1.1"
   opacity="0.5"
   style="display: block;"
   viewBox="0 0 1924 2048"
   width="992"
   height="1056"
   preserveAspectRatio="none"
   id="svg13"
   sodipodi:docname="Logo.svg"
   inkscape:version="1.4.2 (f4327f4, 2025-05-13)"
   inkscape:export-filename="Logo.png"
   inkscape:export-xdpi="96"
   inkscape:export-ydpi="96"
   xmlns:inkscape="http://www.inkscape.org/namespaces/inkscape"
   xmlns:sodipodi="http://sodipodi.sourceforge.net/DTD/sodipodi-0.dtd"
   xmlns="http://www.w3.org/2000/svg"
   xmlns:svg="http://www.w3.org/2000/svg">
  <sodipodi:namedview
     id="namedview13"
     pagecolor="#ffffff"
     bordercolor="#000000"
     borderopacity="0.25"
     inkscape:showpageshadow="2"
     inkscape:pageopacity="0.0"
     inkscape:pagecheckerboard="0"
     inkscape:deskcolor="#d1d1d1"
     inkscape:zoom="0.57251543"
     inkscape:cx="199.99461"
     inkscape:cy="706.53118"
     inkscape:window-width="1920"
     inkscape:window-height="1057"
     inkscape:window-x="1912"
     inkscape:window-y="-8"
     inkscape:window-maximized="1"
     inkscape:current-layer="layer1"
     inkscape:export-bgcolor="#ffffff00" />
  <defs
     id="defs2">
    <linearGradient
       id="linearGradient19"
       inkscape:swatch="gradient">
      <stop
         style="stop-color:#000000;stop-opacity:0;"
         offset="0"
         id="stop19" />
      <stop
         style="stop-color:#000000;stop-opacity:0;"
         offset="1"
         id="stop20" />
    </linearGradient>
    <linearGradient
       id="Gradient1"
       gradientUnits="userSpaceOnUse"
       x1="300.816"
       y1="1861.92"
       x2="1669.51"
       y2="184.648">
      <stop
         class="stop0"
         offset="0"
         stop-opacity="1"
         stop-color="rgb(3,197,188)"
         id="stop1" />
      <stop
         class="stop1"
         offset="1"
         stop-opacity="1"
         stop-color="rgb(45,222,171)"
         id="stop2" />
    </linearGradient>
  </defs>
  <g
     inkscape:groupmode="layer"
     id="layer1"
     inkscape:label="Layer 1"
     style="display:block">
    <rect
       style="opacity:1;fill:#023f4a;fill-opacity:1;stroke:#023f4a;stroke-width:29.86760751;stroke-linejoin:round;stroke-dasharray:none;paint-order:fill markers stroke;stroke-dashoffset:0;stroke-opacity:1"
       id="rect19"
       width="1838.5558"
       height="1981.6853"
       x="59.770233"
       y="40.649986"
       ry="404.42557" />
  </g>
  <path
     fill="url(#Gradient1)"
     d="m 484.695,125.468 c 74.236,-1.657 148.899,-0.037 223.184,-0.042 l 439.501,0.132 226.9,0.077 c 46.87,-0.032 95.08,-2.571 141.66,2.876 46.29,5.412 92.84,18.969 133.32,42.383 79.11,45.762 132.83,122.636 156.09,210.328 11.75,44.286 11.35,89.385 11.25,134.782 l -0.14,102.132 0.08,460.364 0.41,349 0.02,105.87 c 0,28.02 0.49,55.95 -2.19,83.88 -4.73,49.19 -17.9,98.02 -42.89,140.97 -33.85,58.17 -99.62,122.62 -165.64,140.13 -33.79,-39.4 -59.84,-67.62 -104.81,-95.1 -38.75,-23.68 -81.46,-40.11 -124.54,-54.02 -54.83,-17.7 -162.32,-34.73 -198.85,-80.95 -31.52,-39.89 -21.68,-113.76 -15.83,-161.37 11.46,2.28 22.65,5.71 34.02,8.42 36.46,8.72 79.21,7.7 111.84,-12.63 12.53,-7.81 22.45,-17.86 29.82,-30.66 16.86,-29.26 27,-74.78 39.85,-107.55 23.32,-59.51 55.01,-116.09 76.06,-176.37 12.18,-34.86 19.52,-69.84 24.09,-106.42 4.97,-39.85 3.82,-82.258 2.04,-122.284 -1.22,-27.54 -4.32,-55.848 -0.15,-83.241 3.55,-23.325 13.45,-45.239 21.59,-67.2 6.74,-18.189 12.57,-37.18 16.87,-56.104 24.74,-108.796 -1.28,-210.133 -59.73,-302.939 -25.38,-38.178 -55.71,-72.824 -90.2,-103.033 -92.04,-81.28 -209.62,-124.557 -330.78,-137.881 -17.59,-1.934 -35.37,-2.436 -53.036,-3.172 -43.638,-1.819 -86.657,-1.609 -130.259,1.122 -103.323,6.47 -211.33,36.975 -294.212,100.978 -22.734,17.555 -43.291,38.025 -62.254,59.552 -64.808,73.572 -97.939,171.009 -98.929,268.499 -0.293,28.946 3.491,56.99 5.281,85.75 -49.297,62.126 -68.089,112.985 -70.868,192.151 -0.547,15.592 0.662,31.094 2.075,46.607 6.435,70.625 28.264,144.345 77.788,197.175 51.75,55.22 116.854,76.92 190.814,79.29 0.102,23.4 -2.648,46.64 -4.973,69.89 -7.561,75.61 -20.415,148.56 -55.466,216.88 -52.1,101.56 -170.531,183.63 -269.056,235.59 -21.026,11.08 -42.582,24.18 -65.26,31.49 -38.646,-51.2 -62.187,-129.66 -64.766,-193.04 -1.298,-31.9 -0.338,-64.16 -0.319,-96.11 l -0.06,-165.78 0.096,-503.153 -0.032,-264.248 -0.051,-70.012 c -0.071,-24.202 -0.661,-48.751 3.461,-72.696 12.463,-72.397 39.039,-133.375 89.233,-187.548 64.198,-69.297 153.527,-109.924 247.948,-112.765 z"
     id="path3"
     style="display:inline" />
  <path
     transform="translate(0,0)"
     fill="rgb(252,241,218)"
     d="M 1092.93 756.691 C 1126.25 744.921 1161.19 731.33 1192.18 714.313 C 1254.84 679.908 1339.03 609.092 1370.17 544.029 C 1373.23 537.634 1380.09 511.38 1384.76 508.913 C 1391.12 513.045 1396.1 525 1399.67 531.746 C 1421.75 573.42 1439.78 617.056 1449.64 663.282 C 1456.77 696.696 1458.43 757.017 1452.06 790.56 C 1442.01 794.258 1431.39 796.549 1421.56 800.778 C 1396.57 811.531 1374.91 834.652 1363.48 859.073 C 1342.04 904.875 1346.38 954.788 1363.43 1001.07 C 1368.24 1014.18 1373.64 1027.08 1379.61 1039.71 C 1384.76 1050.66 1390.99 1061.84 1394.4 1073.46 C 1395.66 1077.77 1397.27 1084.41 1395.14 1088.68 C 1387.94 1103.1 1365.62 1109.21 1351.41 1113.16 C 1332.56 1118.4 1285.14 1121.24 1275.2 1138.17 C 1271.93 1143.74 1271.84 1149.76 1273.8 1155.8 C 1276.61 1164.48 1282.68 1169.97 1290.78 1173.74 C 1311.23 1183.27 1334.15 1171.2 1340.27 1173.74 C 1344.89 1175.65 1348.21 1183.37 1349.95 1187.76 C 1353.45 1196.63 1355.96 1206.04 1356.79 1215.55 C 1315.99 1214.71 1281 1216.84 1241.73 1229.04 C 1231.9 1232.09 1219.71 1235.9 1211.98 1243.06 C 1209.86 1245.03 1208.82 1246.62 1208.35 1249.53 C 1209.27 1252.89 1210.77 1254.38 1213.76 1256.04 C 1236.26 1268.6 1303.95 1264.26 1332.38 1271.16 C 1337.09 1272.3 1343.22 1273.92 1344.74 1279.11 C 1346.23 1284.2 1344.41 1294.3 1341.7 1298.79 C 1338.35 1304.32 1332.66 1306.89 1326.57 1308.24 C 1313.3 1311.19 1266.35 1305.62 1259.82 1314.31 C 1257.58 1317.29 1258.19 1321.51 1259.04 1324.86 C 1262.17 1337.27 1274.31 1348.77 1285.29 1354.83 C 1291.02 1357.99 1307.96 1362.35 1310.89 1367.62 C 1315.97 1376.75 1301.96 1418.44 1296.63 1428.14 C 1290.76 1438.82 1281.93 1446.78 1270.06 1450.17 C 1258.18 1453.55 1243.61 1453.13 1231.57 1450.85 C 1220.35 1451.97 1182.47 1445.72 1170.32 1443.32 C 1035.06 1416.63 903.56 1346.35 815.477 1239.08 C 806.103 1227.67 796.59 1216.12 788.411 1203.81 C 800.885 1187.32 815.321 1173.67 825.856 1155.39 C 872.934 1073.73 887.582 953.426 863.336 862.591 C 871.793 851.769 883.125 843.01 894.239 835.071 C 939.646 802.633 990.32 786.198 1043.23 770.412 C 1059.4 765.59 1076.2 758.754 1092.93 756.691 z"
     id="path4" />
  <path
     fill="rgb(17,205,182)"
     d="M 863.336 862.591 C 871.793 851.769 883.125 843.01 894.239 835.071 C 939.646 802.633 990.32 786.198 1043.23 770.412 C 1059.4 765.59 1076.2 758.754 1092.93 756.691 C 1087.72 759.23 1084.92 762.353 1081.7 767.066 C 1082.41 772.477 1082.68 784.708 1086.98 788.122 C 1087.35 788.418 1087.76 788.662 1088.16 788.933 C 1093.08 796.401 1105.2 801.013 1113.2 804.435 C 1165.68 826.902 1212.35 848.641 1231.23 907.502 C 1233.81 915.521 1234.82 923.537 1236.56 931.711 C 1217.75 948.508 1199.99 950.226 1175.41 948.85 C 1163.36 948.153 1151.35 946.761 1139.46 944.681 C 1106.89 938.813 1013.2 913.956 988.457 936.871 C 981.643 943.183 979.474 953.307 979.494 962.234 C 979.568 994.777 991.483 1034.97 1001.16 1066.04 C 1035.5 1176.28 1108.74 1340.72 1191.69 1421.58 C 1202.19 1431.82 1217.25 1446.27 1231.57 1450.85 C 1220.35 1451.97 1182.47 1445.72 1170.32 1443.32 C 1035.06 1416.63 903.56 1346.35 815.477 1239.08 C 806.103 1227.67 796.59 1216.12 788.411 1203.81 C 800.885 1187.32 815.321 1173.67 825.856 1155.39 C 872.934 1073.73 887.582 953.426 863.336 862.591 z"
     id="path5"
     transform="translate(0,0)" />
  <path
     transform="translate(0,0)"
     fill="rgb(2,63,74)"
     d="M 1094.96 781.237 C 1141.39 778.285 1226.84 783.759 1262.44 815.109 C 1273.53 824.874 1279.33 837.664 1280.02 852.322 C 1281.1 875.374 1273.34 895.707 1257.65 912.566 C 1251.16 919.541 1243.9 925.658 1236.56 931.711 C 1234.82 923.537 1233.81 915.521 1231.23 907.502 C 1212.35 848.641 1165.68 826.902 1113.2 804.435 C 1105.2 801.013 1093.08 796.401 1088.16 788.933 C 1090.39 786.35 1092.56 783.67 1094.96 781.237 z"
     id="path6" />
  <path
     transform="translate(0,0)"
     fill="rgb(241,106,59)"
     d="M 1012.44 283.402 C 1066.98 276.235 1149.34 296.251 1198.91 321.017 C 1244.42 343.747 1283.16 375.926 1318.19 412.511 C 1325.25 419.874 1336.19 429.538 1339.1 439.464 C 1346.25 463.805 1331.45 501.963 1319.63 522.943 C 1277.62 597.49 1184.5 641.854 1105.89 666.769 C 1083.51 673.862 1060.58 678.889 1037.85 684.697 C 1013.12 691.202 988.446 697.928 963.836 704.874 C 917.402 718.402 870.383 734.487 826.706 755.283 C 790.805 699.731 749.049 664.023 684.005 646.336 C 685.414 624.191 691.635 600.85 697.679 579.527 C 716.678 512.503 744.371 453.229 789.341 399.538 C 848.986 328.325 919.621 291.684 1012.44 283.402 z"
     id="path7" />
  <path
     transform="translate(0,0)"
     fill="rgb(17,205,182)"
     d="M 766.226 1404.29 C 775.24 1407.68 787.366 1427.21 793.544 1435.1 C 816.199 1464.03 841.456 1491.59 867.322 1517.68 C 930.576 1581.46 996.257 1624.57 1077.85 1661.42 C 1082.19 1676.03 1085.04 1691.08 1089.52 1705.68 C 1109.34 1770.37 1140.35 1829.24 1189.09 1876.78 C 1198.12 1885.58 1207.82 1894.08 1217.77 1901.83 C 1226.26 1908.45 1235.94 1914.56 1243.23 1922.51 L 1244.17 1923.55 C 1219.18 1924.57 1193.66 1922.93 1168.59 1923.26 C 1100.09 1924.19 1030.66 1925.64 962.248 1921.12 C 890.343 1917.82 818.794 1909.05 748.222 1894.88 C 694.487 1884.16 641.966 1869.22 588.683 1856.67 C 551.698 1847.96 514.463 1841.51 477.147 1834.53 C 490.22 1821.78 507.281 1811.22 521.961 1800.24 C 542.812 1784.69 563.115 1768.42 582.833 1751.45 C 603.28 1734.13 622.963 1715.93 641.826 1696.9 C 697.793 1641.08 725.034 1594.83 745.953 1517.99 C 756.25 1480.17 763.059 1443.38 766.226 1404.29 z"
     id="path8" />
  <path
     transform="translate(0,0)"
     fill="rgb(17,205,182)"
     d="M 592.553 748.395 C 619.413 745.26 650.638 751.496 674.221 764.543 C 706.257 782.267 724.719 812.913 734.613 847.337 C 747.038 890.572 746.981 937.327 747.687 981.962 C 748.079 1006.69 748.973 1033.14 745.03 1057.62 C 742.852 1071.14 738.583 1084.7 731.863 1096.68 C 716.502 1124.05 688.819 1141.71 659.105 1149.94 C 647.901 1152.25 636.537 1153.72 625.112 1154.32 C 628.681 1129.23 638.237 1104.89 642.443 1079.65 C 652.448 1019.64 655.177 882.841 631.76 829.824 C 618.832 800.555 589.779 784.956 559.343 779.745 C 551.211 778.353 539.629 778.62 532.241 775.178 C 529.764 774.024 529.042 773.029 527.987 770.59 L 529.073 767.921 C 542.334 755.825 575.08 749.867 592.553 748.395 z"
     id="path9" />
  <path
     transform="translate(0,0)"
     fill="rgb(17,205,182)"
     d="M 749.01 280.206 C 748.673 286.068 727.158 302.559 722.177 307.573 C 700.24 329.656 680.752 357.487 664.839 384.174 C 616.775 464.777 595.84 554.04 573.489 644.087 C 562.972 646.792 552.044 648.263 541.402 650.482 C 529.517 652.961 517.819 656.304 506.118 659.523 C 500.14 581.342 514.985 518.9 551.997 450.185 C 586.353 386.401 632.928 337.366 696.77 303.04 C 713.731 293.922 730.493 285.776 749.01 280.206 z"
     id="path10" />
  <path
     transform="translate(0,0)"
     fill="rgb(17,205,182)"
     d="M 1412.45 977.285 C 1406.27 961.714 1401.08 946.368 1400.55 929.476 C 1399.93 909.896 1408.26 881.676 1422.57 867.652 C 1424.83 865.437 1426.31 864.977 1429.4 865.147 C 1429.4 865.147 1429.41 865.147 1429.41 865.147 C 1429.59 874.139 1425.67 884.544 1424.46 893.621 C 1422.61 907.409 1422.79 921.375 1422.62 935.261 C 1422.67 954.006 1423.82 973.4 1422.59 992.058 C 1418.63 987.403 1414.98 982.908 1412.45 977.285 z"
     id="path11" />
  <path
     fill="rgb(17,205,182)"
     d="M 1412.45 977.285 C 1414.92 976.803 1417.37 976.218 1419.82 975.65 C 1423.2 966.247 1418.31 942.17 1422.62 935.261 C 1422.67 954.006 1423.82 973.4 1422.59 992.058 C 1418.63 987.403 1414.98 982.908 1412.45 977.285 z"
     id="path12"
     transform="translate(0,0)" />
</svg>
